<?xml version="1.0" encoding="utf-8"?>
<!-- Generator: Adobe Illustrator 28.0.0, SVG Export Plug-In . SVG Version: 6.00 Build 0)  -->
<svg version="1.1" id="Layer_1" xmlns="http://www.w3.org/2000/svg" xmlns:xlink="http://www.w3.org/1999/xlink" x="0px" y="0px"
	 viewBox="0 0 612 106.43" style="enable-background:new 0 0 612 106.43;" xml:space="preserve">
<g>
	<path d="M168.43,27.85l-17.33,65.43h-18.98l-11.84-46.26h-0.37l-11.78,46.26H89.39L71.99,27.85h17.94l9.89,48.52h0.37l11.6-48.52
		h17.09l11.66,48.52h0.37l9.95-48.52H168.43z"/>
	<path d="M217.8,73.27h16.36c-0.98,6.43-4.18,11.61-9.61,15.53c-5.43,3.93-12.18,5.89-20.23,5.89c-10.05,0-17.93-3.01-23.65-9.03
		c-5.72-6.02-8.58-14.28-8.58-24.78c0-10.46,2.85-18.81,8.54-25.05c5.7-6.25,13.37-9.37,23.01-9.37c9.48,0,17.03,2.97,22.64,8.91
		c5.62,5.94,8.42,13.9,8.42,23.87v5.43h-45.1v1.1c0,4.68,1.37,8.47,4.12,11.38c2.75,2.91,6.38,4.36,10.89,4.36
		c3.26,0,6.06-0.74,8.42-2.23C215.4,77.79,216.99,75.79,217.8,73.27z M203.83,39.63c-3.87,0-7.09,1.32-9.67,3.97
		c-2.58,2.65-4.04,6.02-4.36,10.13h27.77c-0.2-4.19-1.56-7.59-4.06-10.19C211,40.94,207.77,39.63,203.83,39.63z"/>
	<path d="M245.09,93.28V29.81h4.46V43.6h0.12c1.26-4.39,3.56-7.96,6.9-10.68c3.34-2.73,7.42-4.09,12.27-4.09
		c4.84,0,8.98,1.42,12.42,4.27c3.44,2.85,5.65,6.45,6.62,10.8h0.18c1.14-4.27,3.53-7.85,7.17-10.74c3.64-2.89,7.97-4.33,12.97-4.33
		c6.14,0,11.07,1.96,14.77,5.89c3.7,3.93,5.55,9.17,5.55,15.72v42.85h-4.76V51.54c0-5.7-1.49-10.19-4.46-13.49
		c-2.97-3.3-7.04-4.94-12.21-4.94c-5.33,0-9.65,1.92-12.97,5.77c-3.32,3.85-4.97,8.82-4.97,14.92v39.49h-4.7V51.35
		c0-5.45-1.55-9.86-4.64-13.21c-3.09-3.36-7.08-5.04-11.96-5.04c-5.33,0-9.66,2.04-13,6.1c-3.34,4.07-5.01,9.46-5.01,16.17v37.9
		H245.09z"/>
	<path d="M361.24,94.26c-6.19,0-11.23-1.68-15.14-5.04c-3.91-3.36-5.86-7.7-5.86-13.03c0-5.41,1.9-9.66,5.71-12.76
		c3.8-3.09,9.39-4.92,16.75-5.49l21.85-1.53v-5.68c0-5.49-1.58-9.81-4.73-12.94c-3.15-3.13-7.54-4.7-13.15-4.7
		c-5.49,0-9.93,1.32-13.3,3.97c-3.38,2.65-5.47,6.37-6.29,11.17h-4.58c0.61-5.94,3.08-10.66,7.42-14.16
		c4.33-3.5,9.94-5.25,16.82-5.25c6.96,0,12.46,1.93,16.51,5.8c4.05,3.87,6.07,9.12,6.07,15.75v42.91h-4.58V79.67h-0.12
		c-1.63,4.31-4.61,7.82-8.94,10.53C371.34,92.91,366.53,94.26,361.24,94.26z M361.91,90.11c6.27,0,11.61-1.98,16.02-5.95
		c4.41-3.97,6.62-8.78,6.62-14.43v-9.4l-21.18,1.53c-5.94,0.45-10.49,1.9-13.64,4.36C346.58,68.68,345,72,345,76.19
		c0,4.07,1.59,7.41,4.76,10.01C352.94,88.81,356.98,90.11,361.91,90.11z"/>
	<path d="M402.92,93.28V29.81h4.46v12.51h0.12c1.3-4.35,3.42-7.69,6.35-10.01s6.49-3.48,10.68-3.48c2.32,0,4.29,0.35,5.92,1.04v4.76
		c-1.71-0.85-3.91-1.28-6.59-1.28c-4.92,0-8.85,1.89-11.78,5.68s-4.39,8.69-4.39,14.71v39.55H402.92z"/>
	<path d="M444.55,62.34l35.71-32.53h6.16L456.7,57.15l30.03,36.13h-5.8l-27.83-33.2l-8.61,7.69v25.51h-4.7V5.21h4.7v57.13H444.55z"
		/>
	<path d="M511.93,94.26c-6.19,0-11.23-1.68-15.14-5.04c-3.91-3.36-5.86-7.7-5.86-13.03c0-5.41,1.9-9.66,5.71-12.76
		c3.8-3.09,9.39-4.92,16.75-5.49l21.85-1.53v-5.68c0-5.49-1.58-9.81-4.73-12.94c-3.15-3.13-7.54-4.7-13.15-4.7
		c-5.49,0-9.93,1.32-13.3,3.97c-3.38,2.65-5.47,6.37-6.29,11.17h-4.58c0.61-5.94,3.08-10.66,7.42-14.16
		c4.33-3.5,9.94-5.25,16.82-5.25c6.96,0,12.46,1.93,16.51,5.8c4.05,3.87,6.07,9.12,6.07,15.75v42.91h-4.58V79.67h-0.12
		c-1.63,4.31-4.61,7.82-8.94,10.53C522.03,92.91,517.22,94.26,511.93,94.26z M512.6,90.11c6.27,0,11.61-1.98,16.02-5.95
		c4.41-3.97,6.62-8.78,6.62-14.43v-9.4l-21.18,1.53c-5.94,0.45-10.49,1.9-13.64,4.36c-3.15,2.46-4.73,5.79-4.73,9.98
		c0,4.07,1.59,7.41,4.76,10.01C503.63,88.81,507.68,90.11,512.6,90.11z"/>
</g>
</svg>
